<svg xmlns="http://www.w3.org/2000/svg" xmlns:xlink="http://www.w3.org/1999/xlink" version="1.1" x="0px" y="0px" width="100px" height="100px" viewBox="0 0 100 100" enable-background="new 0 0 100 100" xml:space="preserve">
<g id="Captions">
</g>
<g id="Your_Icon">
	<g>
		<path d="M71.521,23.399c0,6.842-21.832,24.322-21.832,24.322S28.479,31.541,28.479,23.399c0-3.509,0-4.577,0-4.577h43.042    C71.521,18.823,71.521,18.695,71.521,23.399z"/>
	</g>
	<g>
		<path d="M72.22,86.161H27.781c0,0,0-1.812,0-5.128c0-3.317,22.046-10.97,22.046-10.97s22.393,7.247,22.393,10.97    C72.22,84.754,72.22,86.161,72.22,86.161z"/>
	</g>
	<path d="M86.919,91H83V76.534c0-11.436-10.389-21.659-16.183-26.474C72.559,45.02,83,34.375,83,23.649V9h3.919   c2.622,0,4.748-1.915,4.748-4.5S89.541,0,86.919,0H13.081c-2.622,0-4.747,1.915-4.747,4.5S10.459,9,13.081,9H16v14.649   c0,10.982,10.714,21.589,16.476,26.543c-1.752,1.537-4.018,3.606-6.236,6.024C19.483,63.587,16,70.423,16,76.534V91h-2.919   c-2.622,0-4.747,1.916-4.747,4.5s2.125,4.5,4.747,4.5h73.838c2.622,0,4.748-1.916,4.748-4.5S89.541,91,86.919,91z M24,76.534   c0-8.745,12.084-19.922,16.813-23.488c0.924-0.693,1.365-1.777,1.355-2.923c-0.01-1.146-0.42-2.22-1.355-2.9   C36.096,43.796,24,32.881,24,23.649V9h52v14.649c0,9.01-12.006,20.092-16.705,23.6c-0.943,0.703-1.39,1.809-1.367,2.974   c0.022,1.164,0.463,2.251,1.433,2.917C64.028,56.352,76,66.815,76,76.534V91H24V76.534z"/>
</g>
</svg>